<mxfile host="app.diagrams.net" agent="Mozilla/5.0 (Windows NT 10.0; Win64; x64) AppleWebKit/537.36 (KHTML, like Gecko) Chrome/130.0.0.0 Safari/537.36" version="24.8.6">
  <diagram name="Page-1" id="VJKdhT3GkgHmaoiE7tLI">
    <mxGraphModel dx="1434" dy="892" grid="1" gridSize="10" guides="1" tooltips="1" connect="1" arrows="1" fold="1" page="1" pageScale="1" pageWidth="850" pageHeight="1100" math="0" shadow="0">
      <root>
        <mxCell id="0" />
        <mxCell id="1" parent="0" />
        <mxCell id="q6jqDNgfvdHD5BArhffq-1" value="" style="rounded=0;whiteSpace=wrap;html=1;" vertex="1" parent="1">
          <mxGeometry x="150" y="30" width="700" height="750" as="geometry" />
        </mxCell>
        <mxCell id="2Y8yMuaS6z8yS2GdczO5-5" value="" style="edgeStyle=orthogonalEdgeStyle;rounded=0;orthogonalLoop=1;jettySize=auto;html=1;" parent="1" source="2Y8yMuaS6z8yS2GdczO5-3" target="2Y8yMuaS6z8yS2GdczO5-4" edge="1">
          <mxGeometry relative="1" as="geometry" />
        </mxCell>
        <mxCell id="2Y8yMuaS6z8yS2GdczO5-3" value="Car Page" style="shape=display;whiteSpace=wrap;html=1;" parent="1" vertex="1">
          <mxGeometry x="385" y="40" width="80" height="40" as="geometry" />
        </mxCell>
        <mxCell id="2Y8yMuaS6z8yS2GdczO5-7" value="" style="edgeStyle=orthogonalEdgeStyle;rounded=0;orthogonalLoop=1;jettySize=auto;html=1;" parent="1" source="2Y8yMuaS6z8yS2GdczO5-4" target="2Y8yMuaS6z8yS2GdczO5-6" edge="1">
          <mxGeometry relative="1" as="geometry" />
        </mxCell>
        <mxCell id="2Y8yMuaS6z8yS2GdczO5-4" value="All users car&lt;br&gt;are visible here" style="shape=parallelogram;perimeter=parallelogramPerimeter;whiteSpace=wrap;html=1;fixedSize=1;" parent="1" vertex="1">
          <mxGeometry x="365" y="150" width="120" height="60" as="geometry" />
        </mxCell>
        <mxCell id="2Y8yMuaS6z8yS2GdczO5-9" value="" style="edgeStyle=orthogonalEdgeStyle;rounded=0;orthogonalLoop=1;jettySize=auto;html=1;" parent="1" source="2Y8yMuaS6z8yS2GdczO5-6" target="2Y8yMuaS6z8yS2GdczO5-8" edge="1">
          <mxGeometry relative="1" as="geometry" />
        </mxCell>
        <mxCell id="2Y8yMuaS6z8yS2GdczO5-6" value="Create a &lt;br&gt;new car" style="shape=parallelogram;perimeter=parallelogramPerimeter;whiteSpace=wrap;html=1;fixedSize=1;" parent="1" vertex="1">
          <mxGeometry x="160" y="150" width="120" height="60" as="geometry" />
        </mxCell>
        <mxCell id="2Y8yMuaS6z8yS2GdczO5-11" value="" style="edgeStyle=orthogonalEdgeStyle;rounded=0;orthogonalLoop=1;jettySize=auto;html=1;" parent="1" source="2Y8yMuaS6z8yS2GdczO5-8" target="2Y8yMuaS6z8yS2GdczO5-10" edge="1">
          <mxGeometry relative="1" as="geometry" />
        </mxCell>
        <mxCell id="2Y8yMuaS6z8yS2GdczO5-8" value="New car modal is called" style="whiteSpace=wrap;html=1;" parent="1" vertex="1">
          <mxGeometry x="160" y="270" width="120" height="60" as="geometry" />
        </mxCell>
        <mxCell id="2Y8yMuaS6z8yS2GdczO5-13" value="" style="edgeStyle=orthogonalEdgeStyle;rounded=0;orthogonalLoop=1;jettySize=auto;html=1;" parent="1" source="2Y8yMuaS6z8yS2GdczO5-10" target="2Y8yMuaS6z8yS2GdczO5-12" edge="1">
          <mxGeometry relative="1" as="geometry" />
        </mxCell>
        <mxCell id="2Y8yMuaS6z8yS2GdczO5-10" value="Please upload an image" style="shape=parallelogram;perimeter=parallelogramPerimeter;whiteSpace=wrap;html=1;fixedSize=1;" parent="1" vertex="1">
          <mxGeometry x="360" y="270" width="120" height="60" as="geometry" />
        </mxCell>
        <mxCell id="2Y8yMuaS6z8yS2GdczO5-15" value="" style="edgeStyle=orthogonalEdgeStyle;rounded=0;orthogonalLoop=1;jettySize=auto;html=1;" parent="1" source="2Y8yMuaS6z8yS2GdczO5-12" target="2Y8yMuaS6z8yS2GdczO5-14" edge="1">
          <mxGeometry relative="1" as="geometry" />
        </mxCell>
        <mxCell id="2Y8yMuaS6z8yS2GdczO5-18" value="&lt;br&gt;&lt;div&gt;NO&lt;/div&gt;&lt;div&gt;&lt;br&gt;&lt;/div&gt;" style="edgeLabel;html=1;align=center;verticalAlign=middle;resizable=0;points=[];" parent="2Y8yMuaS6z8yS2GdczO5-15" vertex="1" connectable="0">
          <mxGeometry x="0.0444" y="-1" relative="1" as="geometry">
            <mxPoint x="-1" as="offset" />
          </mxGeometry>
        </mxCell>
        <mxCell id="2Y8yMuaS6z8yS2GdczO5-22" value="" style="edgeStyle=orthogonalEdgeStyle;rounded=0;orthogonalLoop=1;jettySize=auto;html=1;entryX=0.5;entryY=0;entryDx=0;entryDy=0;" parent="1" source="2Y8yMuaS6z8yS2GdczO5-12" target="2Y8yMuaS6z8yS2GdczO5-23" edge="1">
          <mxGeometry relative="1" as="geometry">
            <mxPoint x="720" y="300" as="targetPoint" />
          </mxGeometry>
        </mxCell>
        <mxCell id="2Y8yMuaS6z8yS2GdczO5-27" value="&amp;nbsp;YES&amp;nbsp;" style="edgeLabel;html=1;align=center;verticalAlign=middle;resizable=0;points=[];" parent="2Y8yMuaS6z8yS2GdczO5-22" vertex="1" connectable="0">
          <mxGeometry x="-0.1667" relative="1" as="geometry">
            <mxPoint x="5" as="offset" />
          </mxGeometry>
        </mxCell>
        <mxCell id="2Y8yMuaS6z8yS2GdczO5-12" value="Does an image &lt;br&gt;exists" style="rhombus;whiteSpace=wrap;html=1;" parent="1" vertex="1">
          <mxGeometry x="580" y="260" width="80" height="80" as="geometry" />
        </mxCell>
        <mxCell id="2Y8yMuaS6z8yS2GdczO5-14" value="please take an &lt;br&gt;image and upload" style="shape=parallelogram;perimeter=parallelogramPerimeter;whiteSpace=wrap;html=1;fixedSize=1;" parent="1" vertex="1">
          <mxGeometry x="560" y="110" width="120" height="60" as="geometry" />
        </mxCell>
        <mxCell id="2Y8yMuaS6z8yS2GdczO5-16" style="edgeStyle=orthogonalEdgeStyle;rounded=0;orthogonalLoop=1;jettySize=auto;html=1;entryX=1;entryY=0.5;entryDx=0;entryDy=0;entryPerimeter=0;" parent="1" source="2Y8yMuaS6z8yS2GdczO5-14" target="2Y8yMuaS6z8yS2GdczO5-3" edge="1">
          <mxGeometry relative="1" as="geometry">
            <Array as="points">
              <mxPoint x="620" y="60" />
            </Array>
          </mxGeometry>
        </mxCell>
        <mxCell id="2Y8yMuaS6z8yS2GdczO5-26" value="" style="edgeStyle=orthogonalEdgeStyle;rounded=0;orthogonalLoop=1;jettySize=auto;html=1;" parent="1" source="2Y8yMuaS6z8yS2GdczO5-23" target="2Y8yMuaS6z8yS2GdczO5-25" edge="1">
          <mxGeometry relative="1" as="geometry" />
        </mxCell>
        <mxCell id="2Y8yMuaS6z8yS2GdczO5-23" value="Please fill all &lt;br&gt;the necessary &lt;br&gt;info in the form" style="shape=parallelogram;perimeter=parallelogramPerimeter;whiteSpace=wrap;html=1;fixedSize=1;" parent="1" vertex="1">
          <mxGeometry x="720" y="410" width="120" height="60" as="geometry" />
        </mxCell>
        <mxCell id="2Y8yMuaS6z8yS2GdczO5-29" value="" style="edgeStyle=orthogonalEdgeStyle;rounded=0;orthogonalLoop=1;jettySize=auto;html=1;" parent="1" source="2Y8yMuaS6z8yS2GdczO5-25" target="2Y8yMuaS6z8yS2GdczO5-28" edge="1">
          <mxGeometry relative="1" as="geometry" />
        </mxCell>
        <mxCell id="2Y8yMuaS6z8yS2GdczO5-25" value="User insert the data and upload image" style="whiteSpace=wrap;html=1;" parent="1" vertex="1">
          <mxGeometry x="520" y="410" width="120" height="60" as="geometry" />
        </mxCell>
        <mxCell id="2Y8yMuaS6z8yS2GdczO5-30" style="edgeStyle=orthogonalEdgeStyle;rounded=0;orthogonalLoop=1;jettySize=auto;html=1;entryX=0.5;entryY=0;entryDx=0;entryDy=0;" parent="1" source="2Y8yMuaS6z8yS2GdczO5-28" target="2Y8yMuaS6z8yS2GdczO5-23" edge="1">
          <mxGeometry relative="1" as="geometry">
            <Array as="points">
              <mxPoint x="380" y="380" />
              <mxPoint x="780" y="380" />
            </Array>
          </mxGeometry>
        </mxCell>
        <mxCell id="2Y8yMuaS6z8yS2GdczO5-31" value="&amp;nbsp;NO&amp;nbsp;" style="edgeLabel;html=1;align=center;verticalAlign=middle;resizable=0;points=[];" parent="2Y8yMuaS6z8yS2GdczO5-30" vertex="1" connectable="0">
          <mxGeometry x="-0.08" y="1" relative="1" as="geometry">
            <mxPoint as="offset" />
          </mxGeometry>
        </mxCell>
        <mxCell id="2Y8yMuaS6z8yS2GdczO5-35" value="" style="edgeStyle=orthogonalEdgeStyle;rounded=0;orthogonalLoop=1;jettySize=auto;html=1;" parent="1" source="2Y8yMuaS6z8yS2GdczO5-28" target="2Y8yMuaS6z8yS2GdczO5-34" edge="1">
          <mxGeometry relative="1" as="geometry" />
        </mxCell>
        <mxCell id="2Y8yMuaS6z8yS2GdczO5-28" value="is all data inserted" style="rhombus;whiteSpace=wrap;html=1;" parent="1" vertex="1">
          <mxGeometry x="340" y="400" width="80" height="80" as="geometry" />
        </mxCell>
        <mxCell id="2Y8yMuaS6z8yS2GdczO5-37" value="" style="edgeStyle=orthogonalEdgeStyle;rounded=0;orthogonalLoop=1;jettySize=auto;html=1;" parent="1" source="2Y8yMuaS6z8yS2GdczO5-34" target="2Y8yMuaS6z8yS2GdczO5-36" edge="1">
          <mxGeometry relative="1" as="geometry" />
        </mxCell>
        <mxCell id="2Y8yMuaS6z8yS2GdczO5-34" value="User data &lt;br&gt;overview before saving" style="shape=parallelogram;perimeter=parallelogramPerimeter;whiteSpace=wrap;html=1;fixedSize=1;" parent="1" vertex="1">
          <mxGeometry x="160" y="410" width="120" height="60" as="geometry" />
        </mxCell>
        <mxCell id="2Y8yMuaS6z8yS2GdczO5-38" style="edgeStyle=orthogonalEdgeStyle;rounded=0;orthogonalLoop=1;jettySize=auto;html=1;entryX=0.5;entryY=1;entryDx=0;entryDy=0;" parent="1" source="2Y8yMuaS6z8yS2GdczO5-36" target="2Y8yMuaS6z8yS2GdczO5-23" edge="1">
          <mxGeometry relative="1" as="geometry" />
        </mxCell>
        <mxCell id="2Y8yMuaS6z8yS2GdczO5-39" value="&amp;nbsp;NO (Please edit the data again)&amp;nbsp;" style="edgeLabel;html=1;align=center;verticalAlign=middle;resizable=0;points=[];" parent="2Y8yMuaS6z8yS2GdczO5-38" vertex="1" connectable="0">
          <mxGeometry x="-0.2508" y="1" relative="1" as="geometry">
            <mxPoint as="offset" />
          </mxGeometry>
        </mxCell>
        <mxCell id="2Y8yMuaS6z8yS2GdczO5-41" value="" style="edgeStyle=orthogonalEdgeStyle;rounded=0;orthogonalLoop=1;jettySize=auto;html=1;" parent="1" source="2Y8yMuaS6z8yS2GdczO5-36" target="2Y8yMuaS6z8yS2GdczO5-40" edge="1">
          <mxGeometry relative="1" as="geometry" />
        </mxCell>
        <mxCell id="2Y8yMuaS6z8yS2GdczO5-42" value="&lt;br&gt;&lt;div&gt;YES&lt;/div&gt;&lt;div&gt;&lt;br&gt;&lt;/div&gt;" style="edgeLabel;html=1;align=center;verticalAlign=middle;resizable=0;points=[];" parent="2Y8yMuaS6z8yS2GdczO5-41" vertex="1" connectable="0">
          <mxGeometry x="-0.2444" y="-1" relative="1" as="geometry">
            <mxPoint as="offset" />
          </mxGeometry>
        </mxCell>
        <mxCell id="2Y8yMuaS6z8yS2GdczO5-36" value="Is user &lt;br&gt;okay with the data" style="rhombus;whiteSpace=wrap;html=1;" parent="1" vertex="1">
          <mxGeometry x="180" y="540" width="80" height="80" as="geometry" />
        </mxCell>
        <mxCell id="2Y8yMuaS6z8yS2GdczO5-44" value="" style="edgeStyle=orthogonalEdgeStyle;rounded=0;orthogonalLoop=1;jettySize=auto;html=1;" parent="1" source="2Y8yMuaS6z8yS2GdczO5-40" target="2Y8yMuaS6z8yS2GdczO5-43" edge="1">
          <mxGeometry relative="1" as="geometry" />
        </mxCell>
        <mxCell id="2Y8yMuaS6z8yS2GdczO5-40" value="the data is send to ASP.NET" style="whiteSpace=wrap;html=1;" parent="1" vertex="1">
          <mxGeometry x="160" y="710" width="120" height="60" as="geometry" />
        </mxCell>
        <mxCell id="2Y8yMuaS6z8yS2GdczO5-46" value="" style="edgeStyle=orthogonalEdgeStyle;rounded=0;orthogonalLoop=1;jettySize=auto;html=1;" parent="1" source="2Y8yMuaS6z8yS2GdczO5-43" target="2Y8yMuaS6z8yS2GdczO5-45" edge="1">
          <mxGeometry relative="1" as="geometry" />
        </mxCell>
        <mxCell id="2Y8yMuaS6z8yS2GdczO5-43" value="data is saved in the database" style="whiteSpace=wrap;html=1;" parent="1" vertex="1">
          <mxGeometry x="360" y="710" width="120" height="60" as="geometry" />
        </mxCell>
        <mxCell id="2Y8yMuaS6z8yS2GdczO5-45" value="Car Page" style="shape=display;whiteSpace=wrap;html=1;" parent="1" vertex="1">
          <mxGeometry x="550" y="720" width="80" height="40" as="geometry" />
        </mxCell>
      </root>
    </mxGraphModel>
  </diagram>
</mxfile>
